# xmcd
# 
# Track frame offsets:
#     150
#     24212
#     36315
#     62090
#     87047
#     112657
#     134650
#     157707
#     204067
#     223887
# 
# Disc length: 3665
# 
# Revision: 1
# Processed by: cddbd v1.5.2PL0 Copyright (c) Steve Scherf et al.
# Submitted via: BonkEnc v1.0
# 
DISCID=780e4f0a
DTITLE=The Paladins - Million Mile Club
DYEAR=1996
DGENRE=Blues
TTITLE0=Follow Your Heart
TTITLE1=Every Time I See Her
TTITLE2=Let's Buzz
TTITLE3=15 Days Under The Hood
TTITLE4=Keep Lovin' Me
TTITLE5=Kiddeo
TTITLE6=Years Since Yesterday
TTITLE7=Big Mary's
TTITLE8=What Side Of The Door
TTITLE9=One Step
EXTD=
EXTT0=
EXTT1=
EXTT2=
EXTT3=
EXTT4=
EXTT5=
EXTT6=
EXTT7=
EXTT8=
EXTT9=
PLAYORDER=
